<?xml version="1.0" encoding="UTF-8"?>
<svg xmlns="http://www.w3.org/2000/svg" xmlns:xlink="http://www.w3.org/1999/xlink" width="10px" height="15px" viewBox="0 0 10 15" version="1.1">
<g id="surface1">
<path style=" stroke:none;fill-rule:evenodd;fill:rgb(55.294118%,55.294118%,55.294118%);fill-opacity:1;" d="M 0.03125 7.453125 C 0.0273438 7.1875 0.152344 6.925781 0.386719 6.71875 L 7.867188 0.300781 C 8.074219 0.101562 8.394531 -0.015625 8.730469 -0.015625 C 9.066406 -0.015625 9.386719 0.101562 9.59375 0.300781 C 10.070312 0.726562 10.070312 1.34375 9.59375 1.769531 L 2.972656 7.453125 L 9.59375 13.140625 C 10.066406 13.570312 10.066406 14.195312 9.59375 14.625 C 9.378906 14.816406 9.0625 14.929688 8.730469 14.929688 C 8.398438 14.929688 8.082031 14.816406 7.867188 14.625 L 0.386719 8.203125 C 0.152344 7.996094 0.0273438 7.730469 0.03125 7.453125 Z M 0.03125 7.453125 "/>
</g>
</svg>
