<?xml version="1.0" encoding="UTF-8"?>
<svg xmlns="http://www.w3.org/2000/svg" xmlns:xlink="http://www.w3.org/1999/xlink" width="10px" height="15px" viewBox="0 0 10 15" version="1.1">
<g id="surface1">
<path style=" stroke:none;fill-rule:evenodd;fill:rgb(55.294118%,55.294118%,55.294118%);fill-opacity:1;" d="M 10 7.484375 C 10 7.214844 9.882812 6.949219 9.660156 6.734375 L 2.121094 0.300781 C 1.910156 0.101562 1.589844 -0.015625 1.25 -0.015625 C 0.910156 -0.015625 0.589844 0.101562 0.378906 0.300781 C -0.101562 0.730469 -0.101562 1.355469 0.378906 1.785156 L 7.039062 7.484375 L 0.378906 13.183594 C -0.101562 13.613281 -0.101562 14.242188 0.378906 14.671875 C 0.597656 14.863281 0.914062 14.972656 1.25 14.972656 C 1.585938 14.972656 1.902344 14.863281 2.121094 14.671875 L 9.660156 8.21875 C 9.890625 8.015625 10.011719 7.753906 10 7.484375 Z M 10 7.484375 "/>
</g>
</svg>
